<svg width="20" height="20" viewBox="0 0 20 20" fill="none" xmlns="http://www.w3.org/2000/svg">
<path d="M10 4.05357C6.75446 4.05357 4.11607 6.69196 4.11161 9.9375C4.11161 11.0491 4.42411 12.1339 5.01339 13.067L5.15179 13.2902L4.55804 15.4598L6.78571 14.875L7 15.0045C7.90179 15.5402 8.9375 15.8259 9.99554 15.8259H10C13.2411 15.8259 15.9509 13.1875 15.9509 9.94196C15.9509 8.37054 15.2723 6.89286 14.1607 5.78125C13.0446 4.66518 11.5714 4.05357 10 4.05357ZM13.4598 12.4643C13.3125 12.8795 12.6071 13.2545 12.2679 13.3036C11.7054 13.3884 11.2679 13.3438 10.1473 12.8616C8.375 12.0938 7.21429 10.308 7.125 10.192C7.03571 10.0759 6.40179 9.23214 6.40179 8.36161C6.40179 7.49107 6.85714 7.0625 7.02232 6.88393C7.18304 6.70536 7.375 6.66071 7.49554 6.66071C7.61161 6.66071 7.73214 6.66071 7.83482 6.66518C7.94196 6.66964 8.08929 6.625 8.23214 6.96875C8.37946 7.32143 8.73214 8.19196 8.77679 8.28125C8.82143 8.37054 8.85268 8.47321 8.79018 8.58929C8.45089 9.26786 8.08929 9.24107 8.27232 9.55357C8.95536 10.7277 9.63839 11.1339 10.6786 11.6563C10.8571 11.7455 10.9598 11.7321 11.0625 11.6116C11.1652 11.4955 11.5045 11.0938 11.6205 10.9196C11.7366 10.7411 11.8571 10.7723 12.0179 10.8304C12.1786 10.8884 13.0491 11.317 13.2277 11.4062C13.4062 11.4955 13.5223 11.5402 13.567 11.6116C13.6071 11.6964 13.6071 12.0536 13.4598 12.4643ZM17.8571 0H2.14286C0.959821 0 0 0.959821 0 2.14286V17.8571C0 19.0402 0.959821 20 2.14286 20H17.8571C19.0402 20 20 19.0402 20 17.8571V2.14286C20 0.959821 19.0402 0 17.8571 0ZM9.99554 17.0179C8.80804 17.0179 7.64286 16.7188 6.61161 16.1562L2.85714 17.1429L3.86161 13.4732C3.24107 12.4018 2.91518 11.183 2.91518 9.93304C2.91964 6.03125 6.09375 2.85714 9.99554 2.85714C11.8884 2.85714 13.6652 3.59375 15.0045 4.93304C16.3393 6.27232 17.1429 8.04911 17.1429 9.94196C17.1429 13.8438 13.8973 17.0179 9.99554 17.0179Z" fill="#5F6673"/>
</svg>
